<svg width="29" height="28" viewBox="0 0 29 28" fill="none" xmlns="http://www.w3.org/2000/svg">
<rect x="0.0993652" width="28" height="28" rx="4" fill="#0068BC"/>
<g clip-path="url(#clip0_3_347)">
<path fill-rule="evenodd" clip-rule="evenodd" d="M17.4327 16.5C18.521 16.5 19.4477 17.1958 19.791 18.1667H20.766C20.987 18.1667 21.199 18.2545 21.3553 18.4107C21.5116 18.567 21.5994 18.779 21.5994 19C21.5994 19.221 21.5116 19.433 21.3553 19.5893C21.199 19.7455 20.987 19.8333 20.766 19.8333H19.791C19.6189 20.3213 19.2996 20.7438 18.8772 21.0427C18.4548 21.3415 17.9501 21.502 17.4327 21.502C16.9153 21.502 16.4106 21.3415 15.9882 21.0427C15.5658 20.7438 15.2465 20.3213 15.0744 19.8333H7.4327C7.21168 19.8333 6.99972 19.7455 6.84344 19.5893C6.68716 19.433 6.59937 19.221 6.59937 19C6.59937 18.779 6.68716 18.567 6.84344 18.4107C6.99972 18.2545 7.21168 18.1667 7.4327 18.1667H15.0744C15.2469 17.6791 15.5663 17.257 15.9887 16.9585C16.411 16.66 16.9155 16.4999 17.4327 16.5ZM17.4327 18.1667C17.2117 18.1667 16.9997 18.2545 16.8434 18.4107C16.6872 18.567 16.5994 18.779 16.5994 19C16.5994 19.221 16.6872 19.433 16.8434 19.5893C16.9997 19.7455 17.2117 19.8333 17.4327 19.8333C17.6537 19.8333 17.8657 19.7455 18.022 19.5893C18.1782 19.433 18.266 19.221 18.266 19C18.266 18.779 18.1782 18.567 18.022 18.4107C17.8657 18.2545 17.6537 18.1667 17.4327 18.1667ZM10.766 11.5C11.2569 11.4999 11.7368 11.6443 12.1461 11.9152C12.5554 12.1861 12.8759 12.5715 13.0677 13.0233L13.1235 13.1667H20.766C20.9784 13.1669 21.1827 13.2482 21.3372 13.394C21.4916 13.5398 21.5846 13.7391 21.597 13.9512C21.6095 14.1632 21.5405 14.372 21.4041 14.5349C21.2678 14.6977 21.0744 14.8024 20.8635 14.8275L20.766 14.8333H13.1244C12.9564 15.3086 12.6487 15.722 12.2416 16.0193C11.8346 16.3166 11.3472 16.484 10.8434 16.4995C10.3396 16.515 9.84284 16.3779 9.41831 16.1061C8.99377 15.8344 8.66126 15.4407 8.46437 14.9767L8.4077 14.8333H7.4327C7.2203 14.8331 7.01601 14.7518 6.86156 14.606C6.70711 14.4602 6.61417 14.2609 6.60172 14.0488C6.58927 13.8368 6.65826 13.628 6.79459 13.4651C6.93091 13.3023 7.12429 13.1976 7.3352 13.1725L7.4327 13.1667H8.4077C8.58021 12.6791 8.89963 12.257 9.32199 11.9585C9.74434 11.66 10.2489 11.4999 10.766 11.5ZM10.766 13.1667C10.545 13.1667 10.3331 13.2545 10.1768 13.4107C10.0205 13.567 9.9327 13.779 9.9327 14C9.9327 14.221 10.0205 14.433 10.1768 14.5893C10.3331 14.7455 10.545 14.8333 10.766 14.8333C10.987 14.8333 11.199 14.7455 11.3553 14.5893C11.5116 14.433 11.5994 14.221 11.5994 14C11.5994 13.779 11.5116 13.567 11.3553 13.4107C11.199 13.2545 10.987 13.1667 10.766 13.1667ZM17.4327 6.5C18.521 6.5 19.4477 7.19583 19.791 8.16667H20.766C20.987 8.16667 21.199 8.25446 21.3553 8.41074C21.5116 8.56702 21.5994 8.77899 21.5994 9C21.5994 9.22101 21.5116 9.43298 21.3553 9.58926C21.199 9.74554 20.987 9.83333 20.766 9.83333H19.791C19.6189 10.3213 19.2996 10.7438 18.8772 11.0427C18.4548 11.3415 17.9501 11.502 17.4327 11.502C16.9153 11.502 16.4106 11.3415 15.9882 11.0427C15.5658 10.7438 15.2465 10.3213 15.0744 9.83333H7.4327C7.21168 9.83333 6.99972 9.74554 6.84344 9.58926C6.68716 9.43298 6.59937 9.22101 6.59937 9C6.59937 8.77899 6.68716 8.56702 6.84344 8.41074C6.99972 8.25446 7.21168 8.16667 7.4327 8.16667H15.0744C15.2469 7.6791 15.5663 7.25702 15.9887 6.95853C16.411 6.66005 16.9155 6.49985 17.4327 6.5ZM17.4327 8.16667C17.2117 8.16667 16.9997 8.25446 16.8434 8.41074C16.6872 8.56702 16.5994 8.77899 16.5994 9C16.5994 9.22101 16.6872 9.43298 16.8434 9.58926C16.9997 9.74554 17.2117 9.83333 17.4327 9.83333C17.6537 9.83333 17.8657 9.74554 18.022 9.58926C18.1782 9.43298 18.266 9.22101 18.266 9C18.266 8.77899 18.1782 8.56702 18.022 8.41074C17.8657 8.25446 17.6537 8.16667 17.4327 8.16667Z" fill="white"/>
</g>
<defs>
<clipPath id="clip0_3_347">
<rect width="20" height="20" fill="white" transform="translate(4.09937 4)"/>
</clipPath>
</defs>
</svg>
